<svg id="edYRF3oPz7f1" xmlns="http://www.w3.org/2000/svg" xmlns:xlink="http://www.w3.org/1999/xlink" viewBox="0 0 26 26" shape-rendering="geometricPrecision" text-rendering="geometricPrecision" project-id="6e97958a13424ad1926d0d1cb406ebd8" export-id="fe703e14c9e847edaa97a6a980ff4edf" cached="false" width="26" height="26">
    <g transform="translate(2.895999 0.792)">
        <g transform="matrix(.956305 0.292372-.292372 0.956305 16.134 7.332)">
            <path d="M27.488,0.9c0,0-1.173-2.411,0-4.118.75825-.894936,1.728378-1.58592,2.822-2.01.765837-.454553,1.455567-1.026516,2.044-1.695s.646,4.47-.531,6.177-4.335,1.646-4.335,1.646Z" transform="translate(-26.967 6.923)" fill="#94c900"/>
        </g>
        <g transform="matrix(-.956305 0.292372-.292372-.956305 13.19 11.288)">
            <path d="M0.638,-0.012c0,0-1.484,3.241-.108,5.48.871467,1.151592,2.034973,2.049253,3.37,2.6.926275.594417,1.748002,1.337756,2.432,2.2s.894-5.965-.482-8.2-5.212-2.08-5.212-2.08Z" fill="#a3db06"/>
        </g>
        <path d="M389.734,-568.2c.295856-1.104649.748097-2.161336,1.343-3.138.685128-1.01873,1.490982-1.950835,2.4-2.776-.773333.896959-1.441666,1.879328-1.992,2.928-.465437.985835-.791881,2.031465-.97,3.107l-.781-.121Z" transform="matrix(.956305 0.292372-.292372 0.956305-525.457 444.885)" fill="#815d38"/>
        <path d="M3.234,-7.836c0,0-1.481.178-2.587,3.085-1.07,2.811.832,6.96,1.362,7.871.961872,1.288173,2.189658,2.3543,3.6,3.126C4.310019,5.053231,3.194914,3.674598,2.3,2.155c-.929902-1.755346-1.070225-3.823116-.386-5.688.737782-1.751206,2.280702-3.034549,4.137-3.441l-2.817-.862Z" transform="matrix(-.956305 0.292372-.292372-.956305 13.33 10.84)" fill="#a8825b"/>
        <path d="M130.165,-600.775c1.596805.458214,3.245311.711908,4.906.755c1.599661-.032559,3.187093-.286642,4.717-.755s-1.576-3.151-4.717-2.962c-1.989831.222296-3.782574,1.304665-4.906,2.962Z" transform="translate(-122.778 621)" fill="#94c900"/>
    </g>
    <path d="M50,17.14c-14.005941,0-25.36,11.354059-25.36,25.36C24.64,56.5,50,82.86,50,82.86s25.36-26.35,25.36-40.36c0-14.005941-11.354059-25.36-25.36-25.36Zm0,35.3c-4.237446-.000017-8.057072-2.554209-9.675856-6.470264s-.717502-8.421733,2.28312-11.413758s7.508868-3.880374,11.420262-2.25036s6.454616,5.456953,6.442474,9.694382C60.453465,47.770702,55.770726,52.440024,50,52.44Z" transform="matrix(.2 0 0 0.2-3.03638 5.2)" fill="#eced40"/>
</svg>
